<?xml version="1.0" encoding="utf-8"?>
<!-- Generator: Adobe Illustrator 20.0.0, SVG Export Plug-In. SVG Version: 6.00 Build 0)  -->
<svg version="1.1" id="Layer_1" xmlns="http://www.w3.org/2000/svg" xmlns:xlink="http://www.w3.org/1999/xlink" x="0px" y="0px"
                     viewBox="0 0 98.3 46.5" style="enable-background:new 0 0 98.3 46.5;" xml:space="preserve">
                <style type="text/css">
                    .st0{fill:none;}
                    .st1{clip-path:url(#SVGID_4_);}
                    .st2{clip-path:url(#SVGID_5_);}
                    .st3{clip-path:url(#SVGID_6_);}
                    .st4{clip-path:url(#SVGID_10_);}
                    .st5{clip-path:url(#SVGID_11_);}
                    .st6{clip-path:url(#SVGID_12_);}
                    .st7{clip-path:url(#SVGID_16_);}
                    .st8{clip-path:url(#SVGID_17_);}
                    .st9{clip-path:url(#SVGID_18_);}
                    .st10{clip-path:url(#SVGID_22_);}
                    .st11{clip-path:url(#SVGID_23_);}
                    .st12{clip-path:url(#SVGID_24_);}
                    .st13{clip-path:url(#SVGID_27_);}
                    .st14{clip-path:url(#SVGID_28_);fill:#FFFFFF;}
                </style>
                <rect x="-13.6" y="-13.5" class="st0" width="125.6" height="73.5"/>
                <rect x="-13.6" y="-13.5" class="st0" width="125.6" height="73.5"/>
                <g>
                    <defs>
                        <rect id="SVGID_1_" x="-13.6" y="-13.5" width="125.6" height="73.5"/>
                    </defs>
                    <defs>
                        <path id="SVGID_2_" d="M76.4,26.6v-4.4h2c1.2,0,1.8,1,1.8,2.2c0,1.2-0.6,2.2-1.8,2.2H76.4L76.4,26.6z M73.2,19.7V34h3.2v-4.9h2.1
                            c3.2,0,4.9-2.1,4.9-4.7c0-2.6-1.7-4.7-4.9-4.7H73.2L73.2,19.7z"/>
                    </defs>
                    <defs>
                        <rect id="SVGID_3_" x="-13.6" y="-13.5" width="125.6" height="73.5"/>
                    </defs>
                    <clipPath id="SVGID_4_">
                        <use xlink:href="#SVGID_1_"  style="overflow:visible;"/>
                    </clipPath>
                    <clipPath id="SVGID_5_" class="st1">
                        <use xlink:href="#SVGID_2_"  style="overflow:visible;"/>
                    </clipPath>
                    <clipPath id="SVGID_6_" class="st2">
                        <use xlink:href="#SVGID_3_"  style="overflow:visible;"/>
                    </clipPath>
                    <rect x="73.1" y="19.6" class="st3" width="10.3" height="14.4"/>
                </g>
                <g>
                    <defs>
                        <rect id="SVGID_7_" x="-13.6" y="-13.5" width="125.6" height="73.5"/>
                    </defs>
                    <defs>
                        <polygon id="SVGID_8_" points="70.8,19.7 64.4,19.7 64.4,22.1 66,22.1 66,31.6 64.4,31.6 64.4,34 70.8,34 70.8,31.6 69.2,31.6
                            69.2,22.1 70.8,22.1 70.8,19.7 		"/>
                    </defs>
                    <defs>
                        <rect id="SVGID_9_" x="-13.6" y="-13.5" width="125.6" height="73.5"/>
                    </defs>
                    <clipPath id="SVGID_10_">
                        <use xlink:href="#SVGID_7_"  style="overflow:visible;"/>
                    </clipPath>
                    <clipPath id="SVGID_11_" class="st4">
                        <use xlink:href="#SVGID_8_"  style="overflow:visible;"/>
                    </clipPath>
                    <clipPath id="SVGID_12_" class="st5">
                        <use xlink:href="#SVGID_9_"  style="overflow:visible;"/>
                    </clipPath>
                    <rect x="64.4" y="19.6" class="st6" width="6.5" height="14.4"/>
                </g>
                <g>
                    <defs>
                        <rect id="SVGID_13_" x="-13.6" y="-13.5" width="125.6" height="73.5"/>
                    </defs>
                    <defs>
                        <polygon id="SVGID_14_" points="58.8,34 62,34 62,19.7 58.8,19.7 58.8,28.7 53.5,19.7 50.3,19.7 50.3,34 53.5,34 53.5,24.9
                            58.8,34 		"/>
                    </defs>
                    <defs>
                        <rect id="SVGID_15_" x="-13.6" y="-13.5" width="125.6" height="73.5"/>
                    </defs>
                    <clipPath id="SVGID_16_">
                        <use xlink:href="#SVGID_13_"  style="overflow:visible;"/>
                    </clipPath>
                    <clipPath id="SVGID_17_" class="st7">
                        <use xlink:href="#SVGID_14_"  style="overflow:visible;"/>
                    </clipPath>
                    <clipPath id="SVGID_18_" class="st8">
                        <use xlink:href="#SVGID_15_"  style="overflow:visible;"/>
                    </clipPath>
                    <rect x="50.3" y="19.6" class="st9" width="11.8" height="14.4"/>
                </g>
                <g>
                    <defs>
                        <rect id="SVGID_19_" x="-13.6" y="-13.5" width="125.6" height="73.5"/>
                    </defs>
                    <defs>
                        <path id="SVGID_20_" d="M39.5,29.2v-9.5h-3.2v9c0,5.2,3.8,5.7,5.7,5.7c1.9,0,5.7-0.5,5.7-5.7v-9h-3.2v9.5c0,1.6-1.3,2.2-2.5,2.2
                            C40.7,31.5,39.5,30.8,39.5,29.2L39.5,29.2z"/>
                    </defs>
                    <defs>
                        <rect id="SVGID_21_" x="-13.6" y="-13.5" width="125.6" height="73.5"/>
                    </defs>
                    <clipPath id="SVGID_22_">
                        <use xlink:href="#SVGID_19_"  style="overflow:visible;"/>
                    </clipPath>
                    <clipPath id="SVGID_23_" class="st10">
                        <use xlink:href="#SVGID_20_"  style="overflow:visible;"/>
                    </clipPath>
                    <clipPath id="SVGID_24_" class="st11">
                        <use xlink:href="#SVGID_21_"  style="overflow:visible;"/>
                    </clipPath>
                    <rect x="36.3" y="19.6" class="st12" width="11.5" height="14.8"/>
                </g>
                <g>
                    <defs>
                        <rect id="SVGID_25_" x="-13.6" y="-13.5" width="125.6" height="73.5"/>
                    </defs>
                    <defs>
                        <polygon id="SVGID_26_" points="88.2,0.8 88.2,5.4 90.5,5.4 90.5,41.1 7.8,41.1 7.8,5.4 10.2,5.4 10.2,0.8 0.6,0.8 0.6,5.4 3,5.4
                            3,45.7 95.3,45.7 95.3,5.4 97.7,5.4 97.7,0.8 88.2,0.8 		"/>
                    </defs>
                    <clipPath id="SVGID_27_">
                        <use xlink:href="#SVGID_25_"  style="overflow:visible;"/>
                    </clipPath>
                    <clipPath id="SVGID_28_" class="st13">
                        <use xlink:href="#SVGID_26_"  style="overflow:visible;"/>
                    </clipPath>
                    <rect x="0.6" y="0.7" class="st14" width="97.2" height="45.1"/>
                </g>
                </svg>