<?xml version="1.0" encoding="utf-8"?>
<!-- Generator: Adwobe Illustrator 20.0.0, SVG Export Plug-In . SVG Version: 6.00 Build 0)  -->
<svg version="1.1" id="Layer_1" xmlns="http://www.w3.org/2000/svg" xmlns:xlink="http://www.w3.org/1999/xlink" x="0px" y="0px"
	 viewBox="0 0 27 33" style="enable-background:new 0 0 27 33;" xml:space="preserve">
<path d="M22.6,17.5c0-4.2,3.4-6.2,3.6-6.3c-1.9-2.8-5-3.2-6.1-3.3c-2.6-0.3-5,1.5-6.3,1.5c-1.3,0-3.3-1.5-5.5-1.4
	c-2.8,0-5.4,1.6-6.9,4.1c-2.9,5-0.7,12.5,2.1,16.6c1.4,2,3.1,4.3,5.2,4.2c2.1-0.1,2.9-1.4,5.4-1.4c2.5,0,3.3,1.4,5.5,1.3
	c2.3,0,3.7-2,5.1-4.1c1.6-2.3,2.3-4.6,2.3-4.7C26.9,24.2,22.6,22.5,22.6,17.5z M18.4,5.3c1.2-1.4,1.9-3.3,1.7-5.3
	c-1.7,0.1-3.7,1.1-4.9,2.5c-1.1,1.2-2,3.2-1.8,5.1C15.3,7.7,17.2,6.7,18.4,5.3z"/>
</svg>
