<?xml version="1.0" encoding="utf-8"?>
<!-- Generator: Adobe Illustrator 20.0.0, SVG Export Plug-In . SVG Version: 6.00 Build 0)  -->
<svg version="1.1" id="Layer_1" xmlns="http://www.w3.org/2000/svg" xmlns:xlink="http://www.w3.org/1999/xlink" x="0px" y="0px"
	 viewBox="0 0 24.8 27.1" style="enable-background:new 0 0 24.8 27.1;" xml:space="preserve">
<g>
	<path d="M0.1,1.3C0,1.5,0,1.7,0,2v23c0,0.3,0,0.5,0.1,0.7L13,13.5L0.1,1.3L0.1,1.3z M0.1,1.3"/>
	<path d="M18.1,8.8L3,0.4C2.4,0,1.8-0.1,1.3,0.1l13,12.3L18.1,8.8z M18.1,8.8"/>
	<path d="M23.6,11.9l-4-2.2l-4.1,3.9l4.2,4l3.9-2.1C25.5,14.3,24.8,12.5,23.6,11.9L23.6,11.9z M23.6,11.9"/>
	<path d="M1.3,27c0.5,0.1,1.1,0.1,1.7-0.3l15.1-8.3l-3.9-3.7C14.2,14.7,1.3,27,1.3,27L1.3,27z M1.3,27"/>
</g>
</svg>
