<?xml version="1.0" encoding="utf-8"?>
<!-- Generator: Adobe Illustrator 20.0.0, SVG Export Plug-In . SVG Version: 6.00 Build 0)  -->
<svg version="1.1" id="Layer_1" xmlns="http://www.w3.org/2000/svg" xmlns:xlink="http://www.w3.org/1999/xlink" x="0px" y="0px"
	 viewBox="0 0 14 14" style="enable-background:new 0 0 14 14;" xml:space="preserve">
<g>
	<g>
		<path d="M12.1,0H1.9C0.9,0,0,0.9,0,1.9v10.2c0,1,0.9,1.9,1.9,1.9h10.2c1,0,1.9-0.9,1.9-1.9V1.9C14,0.9,13.1,0,12.1,0z M7,10.4
			c-1.7,0-3.1-1.4-3.1-3.1c0-1.7,1.4-3.1,3.1-3.1c1.7,0,3.1,1.4,3.1,3.1C10.1,9,8.7,10.4,7,10.4z M7,5.3c-1.1,0-2,0.9-2,2
			c0,1.1,0.9,2,2,2c1.1,0,2-0.9,2-2C9,6.2,8.1,5.3,7,5.3z"/>
	</g>
</g>
</svg>
