<?xml version="1.0" encoding="utf-8"?>
<!-- Generator: Adobe Illustrator 20.0.0, SVG Export Plug-In . SVG Version: 6.00 Build 0)  -->
<svg version="1.1" id="Layer_1" xmlns="http://www.w3.org/2000/svg" xmlns:xlink="http://www.w3.org/1999/xlink" x="0px" y="0px"
	 viewBox="0 0 16 15" style="enable-background:new 0 0 16 15;" xml:space="preserve">
<path d="M16,9.2V15h-3.4V9.6c0-1.4-0.5-2.3-1.7-2.3c-0.9,0-1.5,0.6-1.8,1.2C9,8.7,9,9,9,9.3V15H5.5c0,0,0-9.2,0-10.1H9v1.4
	c0,0,0,0,0,0h0v0c0.5-0.7,1.3-1.7,3.1-1.7C14.3,4.6,16,6.1,16,9.2z M1.9,0C0.8,0,0,0.8,0,1.7c0,1,0.7,1.8,1.9,1.8h0
	c1.2,0,1.9-0.8,1.9-1.8C3.8,0.8,3.1,0,1.9,0z M0.2,15h3.4V4.9H0.2V15z"/>
</svg>
